<?xml version="1.0" encoding="iso-8859-1"?>
<!-- Generator: Adobe Illustrator 19.0.0, SVG Export Plug-In . SVG Version: 6.00 Build 0)  -->
<svg xmlns="http://www.w3.org/2000/svg" xmlns:xlink="http://www.w3.org/1999/xlink" version="1.1" id="Capa_1" x="0px" y="0px" viewBox="0 0 512.017 512.017" style="enable-background:new 0 0 512.017 512.017;" xml:space="preserve" width="512px" height="512px">
<g>
	<g>
		<g>
			<path d="M244.975,244.966l2.5-2.5V281.6c0,4.713,3.82,8.533,8.533,8.533c4.713,0,8.533-3.82,8.533-8.533v-39.133l2.5,2.5     c3.338,3.296,8.711,3.279,12.029-0.038c3.317-3.317,3.334-8.691,0.038-12.029l-17.059-17.06c-3.341-3.325-8.741-3.325-12.081,0     l-17.059,17.06c-3.281,3.341-3.256,8.701,0.054,12.012C236.274,248.223,241.634,248.247,244.975,244.966z" fill="#FFFFFF"/>
			<path d="M321.775,296.166l2.5-2.5V332.8c0,4.713,3.821,8.533,8.533,8.533c4.713,0,8.533-3.821,8.533-8.533v-39.133l2.5,2.5     c3.338,3.296,8.711,3.279,12.029-0.038c3.317-3.317,3.334-8.691,0.038-12.029l-17.059-17.06c-3.341-3.325-8.741-3.325-12.081,0     l-17.059,17.06c-3.281,3.341-3.256,8.701,0.054,12.012S318.434,299.447,321.775,296.166z" fill="#FFFFFF"/>
			<path d="M170.675,293.666V332.8c0,4.713,3.82,8.533,8.533,8.533s8.533-3.821,8.533-8.533v-39.133l2.5,2.5     c2.151,2.178,5.304,3.037,8.262,2.251c2.958-0.786,5.269-3.097,6.055-6.055s-0.073-6.111-2.251-8.262l-17.059-17.06     c-3.341-3.325-8.741-3.325-12.081,0l-17.059,17.06c-3.281,3.341-3.256,8.701,0.054,12.012s8.671,3.335,12.012,0.054     L170.675,293.666z" fill="#FFFFFF"/>
			<path d="M503.475,494.933h-34.133v-76.8c-0.015-14.132-11.468-25.585-25.6-25.6h-8.533V194.447     c14.15,4.065,29.388,1.237,41.136-7.636s18.637-22.755,18.598-37.478V102.4c0-0.084-0.045-0.153-0.047-0.236     c-0.007-0.849-0.143-1.693-0.403-2.502l-27.85-82.271C463.124,6.995,453.368-0.002,442.392,0H69.625     c-10.976-0.002-20.732,6.995-24.25,17.392l-27.85,82.271c-0.259,0.808-0.395,1.651-0.402,2.5     c-0.003,0.084-0.048,0.153-0.048,0.237v46.933c-0.039,14.722,6.85,28.605,18.598,37.478s26.986,11.701,41.136,7.636v198.086     h-8.533c-14.132,0.015-25.585,11.468-25.6,25.6v76.8H8.542c-4.713,0-8.533,3.82-8.533,8.533S3.829,512,8.542,512H255.55     c0.105,0.001,0.211,0.017,0.317,0.017l0.234-0.017h247.374c4.713,0,8.533-3.82,8.533-8.533S508.188,494.933,503.475,494.933z      M477.875,149.333c0.118,12.282-7.336,23.37-18.754,27.898s-24.445,1.562-32.777-7.463c-0.48-0.508-0.89-1.075-1.334-1.616     c-0.977-1.183-1.861-2.44-2.644-3.759c-0.389-0.659-0.758-1.328-1.096-2.017c-0.68-1.413-1.247-2.878-1.695-4.38     c-0.196-0.64-0.443-1.256-0.596-1.914c-0.536-2.211-0.817-4.475-0.837-6.75v-38.4h59.733V149.333z M61.542,22.867     c1.173-3.466,4.424-5.799,8.083-5.8h372.767c3.659,0.001,6.91,2.334,8.083,5.8l24.033,71h-437L61.542,22.867z M128.009,194.447     c19.207,5.529,39.801-1.797,51.2-18.215c8.756,12.553,23.095,20.034,38.4,20.034c15.305,0,29.644-7.481,38.4-20.034     c8.756,12.553,23.095,20.034,38.4,20.034c15.305,0,29.644-7.481,38.4-20.034c11.399,16.417,31.993,23.744,51.2,18.215v198.086     h-37.76c-0.69-2.416-1.41-4.829-2.298-7.208c-13.28-35.568-46.678-59.635-84.621-60.978s-72.959,20.301-88.721,54.841     c-1.934,4.322-3.542,8.784-4.809,13.346h-37.791V194.447z M119.144,169.769c-0.48-0.508-0.89-1.075-1.334-1.616     c-0.977-1.183-1.861-2.44-2.644-3.759c-0.389-0.659-0.758-1.328-1.096-2.017c-0.68-1.413-1.247-2.878-1.695-4.38     c-0.196-0.64-0.443-1.256-0.596-1.914c-0.536-2.211-0.817-4.475-0.837-6.75v-38.4h59.733v38.4     c0.118,12.282-7.336,23.37-18.754,27.898S127.476,178.794,119.144,169.769z M187.742,149.333v-38.4h59.733v38.4     c0,16.495-13.372,29.867-29.867,29.867C201.114,179.2,187.742,165.828,187.742,149.333z M264.542,149.333v-38.4h59.733v38.4     c0,16.495-13.372,29.867-29.867,29.867S264.542,165.828,264.542,149.333z M357.145,175.691     c-9.734-5.19-15.812-15.326-15.804-26.357v-38.4h59.733v38.4c-0.02,2.274-0.301,4.538-0.837,6.747     c-0.154,0.66-0.401,1.279-0.598,1.921c-0.448,1.501-1.014,2.963-1.693,4.374c-0.338,0.69-0.708,1.359-1.096,2.018     c-0.783,1.318-1.666,2.573-2.642,3.755c-0.445,0.542-0.857,1.11-1.338,1.62c-1.511,1.633-3.199,3.093-5.033,4.353     C378.683,180.278,366.88,180.881,357.145,175.691z M401.075,185.521c0.138-0.113,0.25-0.25,0.386-0.365     c1.253-1.066,2.45-2.196,3.586-3.387c0.459-0.478,0.895-0.969,1.332-1.465c0.852-0.966,1.658-1.968,2.429-3.003     c0.253-0.34,0.556-0.643,0.8-0.989c0.244,0.346,0.547,0.649,0.8,0.989c0.771,1.034,1.578,2.036,2.429,3.003     c0.437,0.495,0.873,0.987,1.332,1.465c1.136,1.19,2.333,2.321,3.586,3.387c0.136,0.115,0.248,0.252,0.386,0.365v207.013h-17.067     V185.521z M110.942,185.521v207.013H93.875V185.521c0.138-0.113,0.25-0.25,0.386-0.365c1.253-1.066,2.45-2.196,3.586-3.387     c0.459-0.478,0.895-0.969,1.332-1.465c0.852-0.966,1.658-1.968,2.429-3.003c0.253-0.34,0.556-0.643,0.8-0.989     c0.244,0.346,0.547,0.649,0.8,0.989c0.771,1.034,1.578,2.036,2.429,3.003c0.437,0.495,0.873,0.987,1.332,1.465     c1.136,1.19,2.333,2.321,3.586,3.387C110.692,185.271,110.804,185.407,110.942,185.521z M49.945,175.691     c-9.734-5.19-15.812-15.326-15.804-26.357l0-38.4h59.733v38.4c-0.02,2.274-0.301,4.538-0.837,6.747     c-0.154,0.66-0.401,1.279-0.598,1.921c-0.448,1.501-1.014,2.963-1.693,4.374c-0.338,0.69-0.708,1.359-1.096,2.018     c-0.783,1.318-1.666,2.573-2.642,3.755c-0.445,0.542-0.857,1.11-1.338,1.62c-1.511,1.633-3.199,3.093-5.033,4.353     C71.483,180.278,59.68,180.881,49.945,175.691z M59.742,494.933v-76.8c0.005-4.711,3.822-8.529,8.533-8.533h94.316     c-3.14,33.471,11.929,66.052,39.468,85.333H59.742z M224.125,488.025c-28.262-12.894-45.973-41.544-44.875-72.589     c1.098-31.045,20.79-58.371,49.892-69.236s61.884-3.129,83.058,19.6c21.174,22.729,26.572,55.976,13.675,84.237     c-8.353,18.62-23.817,33.119-42.937,40.257C263.819,497.433,242.638,496.615,224.125,488.025z M452.275,494.933H309.611     c27.787-19.101,43.031-51.768,39.822-85.333h94.309c4.711,0.005,8.529,3.822,8.533,8.533V494.933z" fill="#FFFFFF"/>
			<path d="M283.894,377.612l1.139-2.495c1.956-4.289,0.064-9.352-4.225-11.308c-4.289-1.956-9.352-0.064-11.308,4.225l-1.135,2.487     c-13.721-4.846-28.872,1.588-34.913,14.826s-0.975,28.899,11.676,36.089l-9.636,21.113c-3.629-3.199-5.008-8.25-3.508-12.849     c1.956-4.289,0.064-9.352-4.225-11.308c-4.289-1.956-9.352-0.064-11.308,4.225c-5.04,13.276-0.189,28.271,11.672,36.08     l-1.139,2.495c-1.956,4.29-0.064,9.353,4.225,11.309s9.353,0.064,11.309-4.225l1.094-2.397c2.6,0.566,5.253,0.854,7.915,0.859     c11.334,0.517,21.918-5.66,27.042-15.783c5.039-13.278,0.186-28.274-11.677-36.081l9.636-21.114     c3.629,3.199,5.008,8.25,3.508,12.849c-1.265,2.775-0.954,6.014,0.816,8.497c1.77,2.483,4.731,3.833,7.767,3.542     c3.036-0.292,5.685-2.18,6.951-4.955C300.607,400.416,295.756,385.42,283.894,377.612z M248.975,392.442     c2.497-4.148,7.22-6.417,12.019-5.772l-8.498,18.62C248.865,402.093,247.481,397.043,248.975,392.442z M263.042,443.867     c-2.497,4.148-7.22,6.415-12.018,5.769l8.496-18.617C263.152,434.216,264.536,439.265,263.042,443.867z" fill="#FFFFFF"/>
		</g>
	</g>
</g>
<g>
</g>
<g>
</g>
<g>
</g>
<g>
</g>
<g>
</g>
<g>
</g>
<g>
</g>
<g>
</g>
<g>
</g>
<g>
</g>
<g>
</g>
<g>
</g>
<g>
</g>
<g>
</g>
<g>
</g>
</svg>
